<?xml version="1.0" standalone="no"?>
<!DOCTYPE svg PUBLIC "-//W3C//DTD SVG 20010904//EN"
 "http://www.w3.org/TR/2001/REC-SVG-20010904/DTD/svg10.dtd">
<svg version="1.0" xmlns="http://www.w3.org/2000/svg"
 width="616.000000pt" height="315.000000pt" viewBox="0 0 616.000000 315.000000"
 preserveAspectRatio="xMidYMid meet">

<g transform="translate(0.000000,315.000000) scale(0.100000,-0.100000)"
fill="#000000" stroke="none">
<path d="M0 1575 l0 -1575 3080 0 3080 0 0 1575 0 1575 -3080 0 -3080 0 0
-1575z m2269 1058 c20 -17 20 -20 6 -87 -9 -37 -18 -73 -22 -80 -4 -6 -151
-209 -328 -451 -385 -528 -355 -485 -355 -511 0 -17 40 -64 73 -85 1 -1 77 -5
169 -8 115 -4 171 -10 180 -19 10 -10 8 -34 -11 -125 -12 -61 -30 -120 -38
-129 -15 -17 -55 -18 -577 -18 -327 0 -567 4 -576 10 -12 7 -13 19 -2 80 7 40
16 79 21 89 5 9 170 223 365 476 236 305 356 468 356 483 0 32 -48 78 -96 91
-21 6 -109 11 -194 11 -85 0 -162 4 -170 10 -12 7 -12 19 -2 83 23 135 35 170
62 184 19 10 152 13 571 13 506 0 548 -1 568 -17z m679 -88 c12 -3 22 -12 22
-20 0 -9 -72 -300 -161 -648 -125 -494 -165 -636 -181 -650 -18 -15 -45 -17
-257 -16 -247 1 -284 5 -289 31 -4 20 317 1279 330 1295 5 6 22 13 36 15 41 5
474 -2 500 -7z m673 -26 c273 -46 440 -127 485 -235 8 -18 14 -55 14 -81 0
-54 -193 -911 -215 -952 -38 -75 -140 -135 -273 -161 -81 -16 -382 -8 -512 14
-181 31 -370 88 -370 113 0 27 254 1114 267 1141 33 69 148 141 267 167 90 20
198 18 337 -6z m843 -15 c9 -8 16 -17 16 -20 0 -9 151 -700 157 -714 10 -28
22 19 93 370 43 207 77 351 86 360 12 12 52 15 231 15 188 0 217 -2 226 -16 8
-12 -27 -200 -132 -715 -78 -385 -147 -716 -152 -736 -5 -21 -18 -42 -29 -48
-28 -15 -382 -13 -403 3 -11 8 -49 125 -110 341 -51 182 -98 331 -103 333 -5
2 -39 -142 -74 -319 -54 -266 -69 -327 -87 -345 -21 -22 -28 -23 -220 -23
-194 0 -241 7 -249 35 -2 6 33 27 77 48 92 43 161 106 189 170 10 23 62 260
116 527 l98 485 -18 50 c-22 57 -86 123 -145 150 -23 10 -40 23 -38 29 8 26
77 35 264 35 161 1 194 -1 207 -15z m-3619 -1515 l27 -42 27 42 c38 60 51 54
51 -25 0 -48 -3 -65 -12 -62 -7 3 -14 20 -16 38 l-4 33 -24 -29 -24 -29 -25
30 -25 30 0 -37 c0 -27 -4 -38 -15 -38 -12 0 -15 14 -15 65 0 78 14 85 55 24z
m275 31 c0 -5 -18 -10 -40 -10 -29 0 -40 -4 -40 -15 0 -10 11 -15 35 -15 44 0
46 -18 3 -22 -22 -2 -34 -9 -36 -20 -3 -15 4 -18 43 -18 28 0 44 -4 40 -10 -3
-5 -31 -10 -61 -10 l-54 0 0 65 0 65 55 0 c30 0 55 -4 55 -10z m178 -6 c26
-18 30 -75 6 -95 -8 -7 -40 -14 -70 -17 l-54 -4 0 66 0 66 48 0 c27 0 57 -7
70 -16z m102 -50 c0 -48 -3 -65 -12 -62 -13 5 -23 89 -14 114 13 35 26 9 26
-52z m170 6 c16 -33 30 -62 30 -65 0 -12 -28 -4 -34 10 -3 9 -19 15 -41 15
-22 0 -38 -6 -41 -15 -6 -14 -34 -22 -34 -10 0 20 63 125 75 125 8 0 28 -27
45 -60z"/>
<path d="M3360 2252 c-20 -16 -37 -78 -115 -422 -51 -223 -90 -413 -87 -423
11 -42 153 -64 196 -32 15 12 40 103 112 422 52 225 91 416 88 426 -14 44
-151 64 -194 29z"/>
<path d="M1210 965 c0 -39 3 -45 21 -45 33 0 59 19 59 43 0 31 -18 47 -52 47
-27 0 -28 -2 -28 -45z"/>
<path d="M1512 975 c-11 -23 -10 -25 14 -25 22 0 24 2 13 23 -6 12 -13 23 -14
25 -1 1 -7 -9 -13 -23z"/>
</g>
</svg>
